<?xml version="1.0" encoding="UTF-8" standalone="no"?>
<!DOCTYPE svg PUBLIC "-//W3C//DTD SVG 1.1//EN"
 "http://www.w3.org/Graphics/SVG/1.1/DTD/svg11.dtd">
<!-- Generated by graphviz version 2.50.0 (20211209.0339)
 -->
<!-- Title: snakemake_dag Pages: 1 -->
<svg width="203pt" height="476pt"
 viewBox="0.00 0.00 203.00 476.00" xmlns="http://www.w3.org/2000/svg" xmlns:xlink="http://www.w3.org/1999/xlink">
<g id="graph0" class="graph" transform="scale(1 1) rotate(0) translate(4 472)">
<title>snakemake_dag</title>
<polygon fill="white" stroke="transparent" points="-4,4 -4,-472 199,-472 199,4 -4,4"/>
<!-- 0 -->
<g id="node1" class="node">
<title>0</title>
<path fill="none" stroke="#d85656" stroke-width="2" d="M112.5,-36C112.5,-36 82.5,-36 82.5,-36 76.5,-36 70.5,-30 70.5,-24 70.5,-24 70.5,-12 70.5,-12 70.5,-6 76.5,0 82.5,0 82.5,0 112.5,0 112.5,0 118.5,0 124.5,-6 124.5,-12 124.5,-12 124.5,-24 124.5,-24 124.5,-30 118.5,-36 112.5,-36"/>
<text text-anchor="middle" x="97.5" y="-15.5" font-family="sans" font-size="10.00">all</text>
</g>
<!-- 1 -->
<g id="node2" class="node">
<title>1</title>
<path fill="none" stroke="#78d856" stroke-width="2" d="M119,-108C119,-108 76,-108 76,-108 70,-108 64,-102 64,-96 64,-96 64,-84 64,-84 64,-78 70,-72 76,-72 76,-72 119,-72 119,-72 125,-72 131,-78 131,-84 131,-84 131,-96 131,-96 131,-102 125,-108 119,-108"/>
<text text-anchor="middle" x="97.5" y="-87.5" font-family="sans" font-size="10.00">run_cooler</text>
</g>
<!-- 1&#45;&gt;0 -->
<g id="edge1" class="edge">
<title>1&#45;&gt;0</title>
<path fill="none" stroke="grey" stroke-width="2" d="M97.5,-71.7C97.5,-63.98 97.5,-54.71 97.5,-46.11"/>
<polygon fill="grey" stroke="grey" stroke-width="2" points="101,-46.1 97.5,-36.1 94,-46.1 101,-46.1"/>
</g>
<!-- 2 -->
<g id="node3" class="node">
<title>2</title>
<path fill="none" stroke="#d8a456" stroke-width="2" d="M128.5,-180C128.5,-180 66.5,-180 66.5,-180 60.5,-180 54.5,-174 54.5,-168 54.5,-168 54.5,-156 54.5,-156 54.5,-150 60.5,-144 66.5,-144 66.5,-144 128.5,-144 128.5,-144 134.5,-144 140.5,-150 140.5,-156 140.5,-156 140.5,-168 140.5,-168 140.5,-174 134.5,-180 128.5,-180"/>
<text text-anchor="middle" x="97.5" y="-159.5" font-family="sans" font-size="10.00">add_frag2Pairs</text>
</g>
<!-- 2&#45;&gt;1 -->
<g id="edge2" class="edge">
<title>2&#45;&gt;1</title>
<path fill="none" stroke="grey" stroke-width="2" d="M97.5,-143.7C97.5,-135.98 97.5,-126.71 97.5,-118.11"/>
<polygon fill="grey" stroke="grey" stroke-width="2" points="101,-118.1 97.5,-108.1 94,-118.1 101,-118.1"/>
</g>
<!-- 3 -->
<g id="node4" class="node">
<title>3</title>
<path fill="none" stroke="#56d87b" stroke-width="2" d="M118.5,-252C118.5,-252 76.5,-252 76.5,-252 70.5,-252 64.5,-246 64.5,-240 64.5,-240 64.5,-228 64.5,-228 64.5,-222 70.5,-216 76.5,-216 76.5,-216 118.5,-216 118.5,-216 124.5,-216 130.5,-222 130.5,-228 130.5,-228 130.5,-240 130.5,-240 130.5,-246 124.5,-252 118.5,-252"/>
<text text-anchor="middle" x="97.5" y="-231.5" font-family="sans" font-size="10.00">filter_pairs</text>
</g>
<!-- 3&#45;&gt;2 -->
<g id="edge3" class="edge">
<title>3&#45;&gt;2</title>
<path fill="none" stroke="grey" stroke-width="2" d="M97.5,-215.7C97.5,-207.98 97.5,-198.71 97.5,-190.11"/>
<polygon fill="grey" stroke="grey" stroke-width="2" points="101,-190.1 97.5,-180.1 94,-190.1 101,-190.1"/>
</g>
<!-- 4 -->
<g id="node5" class="node">
<title>4</title>
<path fill="none" stroke="#56d8c9" stroke-width="2" d="M183,-324C183,-324 12,-324 12,-324 6,-324 0,-318 0,-312 0,-312 0,-300 0,-300 0,-294 6,-288 12,-288 12,-288 183,-288 183,-288 189,-288 195,-294 195,-300 195,-300 195,-312 195,-312 195,-318 189,-324 183,-324"/>
<text text-anchor="middle" x="97.5" y="-303.5" font-family="sans" font-size="10.00">mark_duplicates_with_pairtools_dedup</text>
</g>
<!-- 4&#45;&gt;3 -->
<g id="edge4" class="edge">
<title>4&#45;&gt;3</title>
<path fill="none" stroke="grey" stroke-width="2" d="M97.5,-287.7C97.5,-279.98 97.5,-270.71 97.5,-262.11"/>
<polygon fill="grey" stroke="grey" stroke-width="2" points="101,-262.1 97.5,-252.1 94,-262.1 101,-262.1"/>
</g>
<!-- 5 -->
<g id="node6" class="node">
<title>5</title>
<path fill="none" stroke="#56a2d8" stroke-width="2" d="M170,-396C170,-396 25,-396 25,-396 19,-396 13,-390 13,-384 13,-384 13,-372 13,-372 13,-366 19,-360 25,-360 25,-360 170,-360 170,-360 176,-360 182,-366 182,-372 182,-372 182,-384 182,-384 182,-390 176,-396 170,-396"/>
<text text-anchor="middle" x="97.5" y="-375.5" font-family="sans" font-size="10.00">make_pairs_with_pairtools_parse</text>
</g>
<!-- 5&#45;&gt;4 -->
<g id="edge5" class="edge">
<title>5&#45;&gt;4</title>
<path fill="none" stroke="grey" stroke-width="2" d="M97.5,-359.7C97.5,-351.98 97.5,-342.71 97.5,-334.11"/>
<polygon fill="grey" stroke="grey" stroke-width="2" points="101,-334.1 97.5,-324.1 94,-334.1 101,-334.1"/>
</g>
<!-- 6 -->
<g id="node7" class="node">
<title>6</title>
<path fill="none" stroke="#c6d856" stroke-width="2" d="M128,-468C128,-468 67,-468 67,-468 61,-468 55,-462 55,-456 55,-456 55,-444 55,-444 55,-438 61,-432 67,-432 67,-432 128,-432 128,-432 134,-432 140,-438 140,-444 140,-444 140,-456 140,-456 140,-462 134,-468 128,-468"/>
<text text-anchor="middle" x="97.5" y="-447.5" font-family="sans" font-size="10.00">run_bwa_mem</text>
</g>
<!-- 6&#45;&gt;5 -->
<g id="edge6" class="edge">
<title>6&#45;&gt;5</title>
<path fill="none" stroke="grey" stroke-width="2" d="M97.5,-431.7C97.5,-423.98 97.5,-414.71 97.5,-406.11"/>
<polygon fill="grey" stroke="grey" stroke-width="2" points="101,-406.1 97.5,-396.1 94,-406.1 101,-406.1"/>
</g>
</g>
</svg>
